HIERARCHY
ROOT Hips
{
 OFFSET 0.000000 0.000000 0.000000
 CHANNELS 6 Xposition Yposition Zposition Yrotation Xrotation Zrotation
 JOINT Chest
 {
  OFFSET 0.000000 9.585900 0.002600
  CHANNELS 3 Yrotation Xrotation Zrotation
  JOINT Chest2
  {
   OFFSET 0.000000 9.601200 -0.005300
   CHANNELS 3 Yrotation Xrotation Zrotation
   JOINT Chest3
   {
    OFFSET 0.000000 9.561800 0.000000
    CHANNELS 3 Yrotation Xrotation Zrotation
    JOINT Chest4
    {
     OFFSET 0.000000 9.552100 0.000000
     CHANNELS 3 Yrotation Xrotation Zrotation
     JOINT Neck
     {
      OFFSET 0.000000 14.453000 0.000000
      CHANNELS 3 Yrotation Xrotation Zrotation
      JOINT Head
      {
       OFFSET 0.000000 8.936500 -0.011300
       CHANNELS 3 Yrotation Xrotation Zrotation
       End Site
       {
        OFFSET 0.000000 17.073600 -0.006000
       }
      }
     }
     JOINT RightCollar
     {
      OFFSET -2.921100 9.558500 0.000000
      CHANNELS 3 Yrotation Xrotation Zrotation
      JOINT RightShoulder
      {
       OFFSET -13.519700 0.000000 0.000000
       CHANNELS 3 Yrotation Xrotation Zrotation
       JOINT RightElbow
       {
        OFFSET 0.000000 -29.696600 0.000000
        CHANNELS 3 Yrotation Xrotation Zrotation
        JOINT RightWrist
        {
         OFFSET 0.000000 -24.004700 0.000000
         CHANNELS 3 Yrotation Xrotation Zrotation
         End Site
         {
          OFFSET 0.000000 -17.728500 0.000000
         }
        }
       }
      }
     }
     JOINT LeftCollar
     {
      OFFSET 2.921100 9.558500 0.000000
      CHANNELS 3 Yrotation Xrotation Zrotation
      JOINT LeftShoulder
      {
       OFFSET 13.519700 0.000000 0.000000
       CHANNELS 3 Yrotation Xrotation Zrotation
       JOINT LeftElbow
       {
        OFFSET 0.000000 -29.696600 0.000000
        CHANNELS 3 Yrotation Xrotation Zrotation
        JOINT LeftWrist
        {
         OFFSET 0.000000 -24.004700 0.000000
         CHANNELS 3 Yrotation Xrotation Zrotation
         End Site
         {
          OFFSET 0.000000 -17.728500 0.000000
         }
        }
       }
      }
     }
    }
   }
  }
 }
 JOINT RightHip
 {
  OFFSET -7.771700 -0.012900 -0.001300
  CHANNELS 3 Yrotation Xrotation Zrotation
  JOINT RightKnee
  {
   OFFSET 0.000000 -40.869800 0.001200
   CHANNELS 3 Yrotation Xrotation Zrotation
   JOINT RightAnkle
   {
    OFFSET 0.000000 -39.717900 0.002100
    CHANNELS 3 Yrotation Xrotation Zrotation
    JOINT RightToe
    {
     OFFSET 0.000000 -4.965400 11.033500
     CHANNELS 3 Yrotation Xrotation Zrotation
     End Site
     {
      OFFSET 0.000000 -1.423100 5.872300
     }
    }
   }
  }
 }
 JOINT LeftHip
 {
  OFFSET 7.771700 -0.012900 -0.001300
  CHANNELS 3 Yrotation Xrotation Zrotation
  JOINT LeftKnee
  {
   OFFSET 0.000000 -40.869800 0.001200
   CHANNELS 3 Yrotation Xrotation Zrotation
   JOINT LeftAnkle
   {
    OFFSET 0.000000 -39.717900 0.002100
    CHANNELS 3 Yrotation Xrotation Zrotation
    JOINT LeftToe
    {
     OFFSET 0.000000 -4.965400 11.033500
     CHANNELS 3 Yrotation Xrotation Zrotation
     End Site
     {
      OFFSET 0.000000 -1.423100 5.872300
     }
    }
   }
  }
 }
}
MOTION
Frames: 8
Frame Time: 0.008333
0.000000 85.388000 0.000000 0.000000 -5.767877 0.000000 0.000000 11.653817 0.000000 0.000000 -5.885947 0.000000 0.000000 -0.000000 0.000000 0.000000 -0.000000 0.000000 0.000000 12.528835 0.000000 0.000000 0.711642 0.000000 0.000000 -0.000000 0.000000 0.000000 0.000000 -90.000000 0.000000 -2.309062 0.000000 0.000000 2.309062 0.000000 0.000000 -0.000000 0.000000 0.000000 -0.000000 90.000000 0.000000 -2.309062 0.000000 0.000000 2.309062 0.000000 0.000000 8.520406 0.000000 0.000000 1.905762 0.000000 -0.000000 -4.658285 0.000000 0.000000 -0.000000 0.000000 0.000000 8.520406 0.000000 0.000000 1.905762 0.000000 -0.000000 -4.658285 0.000000 0.000000 -0.000000 0.000000
-122.184716 51.812609 -50.717630 176.359793 -21.273566 0.150566 -0.412480 11.964921 0.663177 -0.038203 0.867097 0.096126 -0.069873 1.491515 0.148196 -0.393946 10.940348 1.108162 -1.413115 19.667234 -1.448711 -1.150626 -4.908523 -1.219159 3.010240 16.552312 13.058308 29.614156 -2.052568 -25.791016 107.740360 -67.074357 -139.143741 1.522360 3.201970 0.609647 -4.765617 15.809045 -15.084263 -29.967946 1.002292 29.017166 -97.262065 -76.624767 137.478227 11.913966 9.338451 -9.348379 -10.284135 -61.162942 5.630878 -101.252526 82.070957 -109.234402 -2.221603 -11.229405 8.511118 0.201318 -0.555069 0.064109 12.977658 -59.280930 -9.374077 29.355968 85.343292 34.935273 -3.295500 -12.463116 1.451979 0.163970 0.491118 0.064318
-122.188090 51.809393 -50.713188 176.347474 -21.270908 0.185038 -0.405347 11.960229 0.639838 -0.039665 0.864543 0.093199 -0.065912 1.493373 0.150581 -0.393201 10.940402 1.104181 -1.409044 19.671169 -1.448787 -1.143601 -4.904269 -1.221050 3.023847 16.536008 13.057333 29.642127 -2.056034 -25.856630 107.691562 -67.140822 -139.126746 1.578302 3.077958 0.657302 -4.753967 15.811600 -15.080018 -29.974702 1.003435 29.015881 -97.271794 -76.616124 137.492499 11.916834 9.336889 -9.376090 -10.252088 -61.175320 5.574441 -101.269857 82.093144 -109.255606 -2.196730 -11.215335 8.507840 0.178987 -0.589474 0.061181 12.997382 -59.272829 -9.413047 29.372822 85.326058 34.951248 -3.295077 -12.452842 1.434268 0.170795 0.488912 0.067043
-122.186048 51.805324 -50.706596 176.318018 -21.258487 0.194926 -0.379633 11.941826 0.643725 -0.037405 0.866286 0.092464 -0.066278 1.491528 0.151368 -0.389280 10.943527 1.102633 -1.384443 19.676152 -1.448260 -1.166773 -4.903871 -1.214170 3.029384 16.530838 13.056212 29.678481 -2.067893 -25.925126 107.662149 -67.157984 -139.108881 1.578652 3.070782 0.659086 -4.729067 15.815052 -15.069428 -29.966767 1.000646 29.009707 -97.355638 -76.613333 137.546166 11.916073 9.333355 -9.391110 -10.245536 -61.188676 5.574662 -101.186859 82.110068 -109.151858 -2.199139 -11.189353 8.480715 0.194000 -0.608652 0.065886 12.988937 -59.284201 -9.393374 29.405842 85.315103 34.979064 -3.285697 -12.449379 1.424727 0.164975 0.490084 0.063807
-122.185606 51.802511 -50.703626 176.297574 -21.268071 0.214814 -0.362287 11.948252 0.633260 -0.038167 0.864915 0.093659 -0.063529 1.493262 0.150229 -0.370166 10.944141 1.106264 -1.402839 19.678492 -1.449941 -1.149019 -4.897743 -1.221310 3.017999 16.525520 13.053771 29.686212 -2.072105 -25.947431 107.673962 -67.126215 -139.116697 1.572752 3.081938 0.658262 -4.744222 15.816818 -15.069276 -29.962394 1.001031 29.008042 -97.390494 -76.610110 137.574907 11.915532 9.334891 -9.398774 -10.208811 -61.180960 5.541273 -101.132345 82.113992 -109.085842 -2.199033 -11.169848 8.468805 0.205704 -0.626689 0.067808 12.942115 -59.267817 -9.357095 29.475018 85.297705 35.023908 -3.272675 -12.456133 1.423191 0.161092 0.498556 0.050922
-122.183707 51.799191 -50.699585 176.297854 -21.268640 0.220473 -0.364778 11.938132 0.636055 -0.036329 0.870953 0.089988 -0.062573 1.490678 0.151971 -0.370602 10.951133 1.099876 -1.386312 19.683175 -1.449974 -1.141218 -4.892235 -1.223322 3.043381 16.510146 13.052890 29.677332 -2.072205 -25.963043 107.715787 -67.063628 -139.157153 1.563342 3.109549 0.657908 -4.740572 15.817630 -15.067861 -29.945330 0.994139 29.003146 -97.441632 -76.615439 137.596857 11.909000 9.317481 -9.402384 -10.207861 -61.180893 5.526620 -101.092458 82.119589 -109.036763 -2.194335 -11.144754 8.460692 0.212672 -0.648544 0.063516 12.938653 -59.263945 -9.365025 29.399371 85.289991 34.960172 -3.272154 -12.448182 1.410866 0.171889 0.495874 0.052106
-122.184379 51.796728 -50.698284 176.288041 -21.281146 0.248640 -0.359246 11.945946 0.617357 -0.035823 0.871094 0.089871 -0.064573 1.494060 0.147289 -0.360332 10.950671 1.103465 -1.367331 19.691958 -1.454000 -1.150085 -4.887922 -1.223581 3.051486 16.490803 13.054176 29.690771 -2.066863 -26.002518 107.687302 -67.085966 -139.152543 1.579329 3.080348 0.661379 -4.733675 15.821629 -15.058904 -29.931704 0.985032 28.984283 -97.502953 -76.614612 137.627833 11.904530 9.302193 -9.412856 -10.180274 -61.173135 5.479825 -101.093640 82.135714 -109.044077 -2.175807 -11.122549 8.463444 0.199438 -0.676917 0.055278 12.932314 -59.242685 -9.377540 29.480103 85.275870 35.038320 -3.278364 -12.442376 1.393916 0.175821 0.488436 0.058526
-122.185639 51.794419 -50.697906 176.271485 -21.293802 0.285557 -0.349605 11.955090 0.590128 -0.035601 0.870191 0.091138 -0.060941 1.494810 0.148286 -0.351051 10.948256 1.103452 -1.370810 19.698335 -1.457178 -1.143838 -4.878375 -1.229730 3.059883 16.476039 13.051129 29.700710 -2.063519 -26.036173 107.672934 -67.073731 -139.159148 1.554927 3.123735 0.655636 -4.720705 15.829847 -15.042930 -29.951146 0.982056 28.966781 -97.511942 -76.626339 137.632425 11.905917 9.296604 -9.420271 -10.183170 -61.167626 5.445864 -101.105347 82.155905 -109.069969 -2.142408 -11.099833 8.450123 0.174087 -0.707614 0.053323 12.911957 -59.219845 -9.383943 29.645192 85.255792 35.193422 -3.279028 -12.437330 1.365325 0.183134 0.481838 0.064375
